<svg width="13" height="13" viewBox="0 0 13 13" fill="none" xmlns="http://www.w3.org/2000/svg">
<path d="M12.1499 8.1998C12.3984 8.1998 12.6001 8.40154 12.6001 8.64999V10.65C12.6001 11.7255 11.7254 12.6002 10.6499 12.6002H2.1499C1.07445 12.6002 0.199707 11.7255 0.199707 10.65V8.64999C0.199707 8.40154 0.401445 8.1998 0.649902 8.1998C0.89836 8.1998 1.1001 8.40154 1.1001 8.64999V10.65C1.1001 11.229 1.57086 11.6998 2.1499 11.6998H10.6499C11.2289 11.6998 11.6997 11.229 11.6997 10.65V8.64999C11.6997 8.40154 11.9014 8.1998 12.1499 8.1998ZM6.39893 0.199799C6.64737 0.199811 6.84912 0.401545 6.84912 0.649994V8.81796C6.85699 8.81008 6.86547 8.80261 6.87354 8.79453C7.09158 8.57613 7.38151 8.28525 7.67139 7.99472C7.96125 7.7042 8.25105 7.41365 8.46826 7.19589C8.57688 7.08701 8.66762 6.99572 8.73096 6.93222L8.83057 6.83261C9.00718 6.655 9.29193 6.65807 9.46631 6.83066C9.64341 7.00596 9.64267 7.29193 9.46826 7.46738L7.1665 9.78183H7.16553C6.96127 9.98603 6.68826 10.1002 6.39893 10.1002C6.15918 10.1001 5.93114 10.0213 5.74365 9.87851L5.73291 9.88437L5.63037 9.78183L3.32959 7.46738C3.15573 7.29172 3.15419 7.0062 3.33154 6.83066H3.33252C3.5068 6.65919 3.79072 6.65451 3.96729 6.83261L4.06689 6.93222C4.13024 6.99574 4.22097 7.08698 4.32959 7.19589C4.54681 7.41371 4.83658 7.70409 5.12646 7.99472C5.41626 8.28527 5.70626 8.576 5.92432 8.79453C5.93245 8.80268 5.9408 8.81099 5.94873 8.81894V0.649994C5.94873 0.401537 6.15047 0.199799 6.39893 0.199799Z" fill="#64748B" stroke="#64748B" stroke-width="0.4"/>
</svg>
